# xmcd CD database file
#
# Track frame offsets:
#	150
#	18317
#	29995
#
# Disc length: 640 seconds
#
# Revision: 0
# Processed by: cddbd v1.5.1PL0 Copyright (c) Steve Scherf et al.
# Submitted via: CDex 1.50beta10
#
DISCID=21027e03
DTITLE=小島麻由美 - はつ恋
DYEAR=1997
DGENRE=Pop
TTITLE0=はつ恋
TTITLE1=おしゃべり！おしゃべり！
TTITLE2=はつ恋(オリジナルカラオケ)
EXTD=YEAR: 1997
EXTT0=
EXTT1=
EXTT2=
PLAYORDER=
